<svg xmlns="http://www.w3.org/2000/svg" viewBox="0 0 512 512" fill="none">
  <defs>
    <linearGradient id="bg" x1="64" y1="32" x2="448" y2="480" gradientUnits="userSpaceOnUse">
      <stop stop-color="#3A7A52"/>
      <stop offset="1" stop-color="#1E4630"/>
    </linearGradient>
    <linearGradient id="sync" x1="288" y1="288" x2="448" y2="448" gradientUnits="userSpaceOnUse">
      <stop stop-color="#7FD4A0"/>
      <stop offset="1" stop-color="#4A9E6B"/>
    </linearGradient>
  </defs>
  <rect width="512" height="512" rx="108" fill="url(#bg)"/>
  <path d="M144 184h224a24 24 0 0 1 24 24v176a24 24 0 0 1-24 24H144a24 24 0 0 1-24-24V208a24 24 0 0 1 24-24z" fill="#FAF9F6" fill-opacity="0.95"/>
  <path d="M184 136v48M328 136v48" stroke="#FAF9F6" stroke-width="28" stroke-linecap="round"/>
  <path d="M144 208h224" stroke="#2D5A3D" stroke-width="20" stroke-opacity="0.25"/>
  <circle cx="208" cy="280" r="20" fill="#2D5A3D" fill-opacity="0.55"/>
  <circle cx="256" cy="280" r="20" fill="#2D5A3D" fill-opacity="0.55"/>
  <circle cx="304" cy="280" r="20" fill="#2D5A3D" fill-opacity="0.55"/>
  <circle cx="208" cy="336" r="20" fill="#2D5A3D" fill-opacity="0.35"/>
  <circle cx="256" cy="336" r="20" fill="#2D5A3D" fill-opacity="0.35"/>
  <path d="M344 312a52 52 0 0 0-35.2-48.8M396 364a52 52 0 0 0-35.2-48.8" stroke="url(#sync)" stroke-width="24" stroke-linecap="round"/>
  <path d="M308.8 263.2l19.2 19.2 36-36M392.8 347.2l19.2 19.2 36-36" stroke="url(#sync)" stroke-width="24" stroke-linecap="round" stroke-linejoin="round"/>
</svg>
